<svg width="18" height="18" viewBox="0 0 18 18" fill="none" xmlns="http://www.w3.org/2000/svg">
<g clip-path="url(#clip0_60_590)">
<path d="M12.875 0C14.2639 0 15.4306 0.520408 16.375 1.56122C17.3194 2.60204 17.7917 3.87245 17.7917 5.37245C17.7917 6.10714 17.6528 6.84949 17.375 7.59949C17.0972 8.34949 16.7917 9.01531 16.4583 9.59694C16.125 10.1786 15.5625 10.9286 14.7708 11.8469C13.9792 12.7653 13.3125 13.5077 12.7708 14.074C12.2292 14.6403 11.3611 15.5051 10.1667 16.6684L8.875 17.9541L7.58333 16.7143C6.41667 15.5204 5.55556 14.6403 5 14.074C4.44444 13.5077 3.77083 12.7653 2.97917 11.8469C2.1875 10.9286 1.625 10.1786 1.29167 9.59694C0.958333 9.01531 0.659722 8.34949 0.395833 7.59949C0.131944 6.84949 0 6.10714 0 5.37245C0 3.87245 0.472222 2.60204 1.41667 1.56122C2.36111 0.520408 3.51389 0 4.875 0C6.48611 0 7.81944 0.688776 8.875 2.06633C9.93055 0.688776 11.2639 0 12.875 0ZM8.95833 15.2449C10.3194 13.898 11.3125 12.8954 11.9375 12.2372C12.5625 11.5791 13.25 10.7908 14 9.87245C14.75 8.95408 15.2708 8.15051 15.5625 7.46174C15.8542 6.77296 16 6.07653 16 5.37245C16 4.39286 15.7014 3.58163 15.1042 2.93878C14.5069 2.29592 13.7639 1.97449 12.875 1.97449C12.2083 1.97449 11.5764 2.18878 10.9792 2.61735C10.3819 3.04592 9.95833 3.59694 9.70833 4.27041H8.04167C7.81944 3.59694 7.40972 3.04592 6.8125 2.61735C6.21528 2.18878 5.56944 1.97449 4.875 1.97449C3.98611 1.97449 3.25 2.29592 2.66667 2.93878C2.08333 3.58163 1.79167 4.39286 1.79167 5.37245C1.79167 6.07653 1.93056 6.77296 2.20833 7.46174C2.48611 8.15051 3.00694 8.95408 3.77083 9.87245C4.53472 10.7908 5.22917 11.5791 5.85417 12.2372C6.47917 12.8954 7.45833 13.898 8.79167 15.2449L8.875 15.3367L8.95833 15.2449Z" fill="#DBDBDB"/>
</g>
<defs>
<clipPath id="clip0_60_590">
<rect width="18" height="18" fill="white"/>
</clipPath>
</defs>
</svg>
