<svg width="32" height="32" viewBox="0 0 32 32" fill="none" xmlns="http://www.w3.org/2000/svg">
<rect width="32" height="32" rx="7" fill="#FEF0F0"/>
<path d="M22.6613 12.4592C22.4441 11.9779 22.1309 11.5418 21.7392 11.1753C21.3472 10.8077 20.8851 10.5155 20.3779 10.3148C19.852 10.1057 19.288 9.99876 18.7185 10C17.9195 10 17.1401 10.2093 16.4627 10.6047C16.3006 10.6993 16.1467 10.8032 16.0008 10.9164C15.855 10.8032 15.701 10.6993 15.5389 10.6047C14.8616 10.2093 14.0821 10 13.2831 10C12.7078 10 12.1504 10.1054 11.6237 10.3148C11.1148 10.5163 10.6562 10.8063 10.2624 11.1753C9.87023 11.5414 9.55695 11.9776 9.34032 12.4592C9.11506 12.96 9 13.4918 9 14.0392C9 14.5555 9.1102 15.0935 9.32897 15.6409C9.5121 16.0983 9.77463 16.5727 10.1101 17.0519C10.6416 17.8101 11.3725 18.6008 12.28 19.4025C13.7839 20.7313 15.2732 21.6492 15.3364 21.6864L15.7204 21.9221C15.8906 22.026 16.1094 22.026 16.2795 21.9221L16.6636 21.6864C16.7268 21.6476 18.2145 20.7313 19.72 19.4025C20.6275 18.6008 21.3584 17.8101 21.8899 17.0519C22.2254 16.5727 22.4895 16.0983 22.671 15.6409C22.8898 15.0935 23 14.5555 23 14.0392C23.0016 13.4918 22.8865 12.96 22.6613 12.4592Z" fill="#FF8585"/>
</svg>
